<svg width="20" height="20" viewBox="0 0 20 20" fill="none" xmlns="http://www.w3.org/2000/svg">
<mask id="mask0_185_2391" style="mask-type:alpha" maskUnits="userSpaceOnUse" x="0" y="0" width="20" height="20">
<rect width="20" height="20" fill="currentColor"/>
</mask>
<g mask="url(#mask0_185_2391)">
<path d="M4.16667 18.3333C3.70833 18.3333 3.31597 18.1701 2.98958 17.8437C2.66319 17.5173 2.5 17.125 2.5 16.6666V4.99996C2.5 4.54163 2.66319 4.14926 2.98958 3.82288C3.31597 3.49649 3.70833 3.33329 4.16667 3.33329H5V1.66663H6.66667V3.33329H13.3333V1.66663H15V3.33329H15.8333C16.2917 3.33329 16.684 3.49649 17.0104 3.82288C17.3368 4.14926 17.5 4.54163 17.5 4.99996V16.6666C17.5 17.125 17.3368 17.5173 17.0104 17.8437C16.684 18.1701 16.2917 18.3333 15.8333 18.3333H4.16667ZM4.16667 16.6666H15.8333V8.33329H4.16667V16.6666ZM4.16667 6.66663H15.8333V4.99996H4.16667V6.66663Z" fill="currentColor"/>
</g>
</svg>
