<svg width="25" height="24" viewBox="0 0 25 24" fill="none" xmlns="http://www.w3.org/2000/svg">
<g opacity="0.4">
<mask id="mask0_72_2642" style="mask-type:alpha" maskUnits="userSpaceOnUse" x="0" y="0" width="25" height="24">
<rect x="0.666504" width="24" height="24" fill="#D9D9D9"/>
</mask>
<g mask="url(#mask0_72_2642)">
<path d="M4.6665 22V11H2.6665V5H7.8665C7.78317 4.85 7.729 4.69167 7.704 4.525C7.679 4.35833 7.6665 4.18333 7.6665 4C7.6665 3.16667 7.95817 2.45833 8.5415 1.875C9.12484 1.29167 9.83317 1 10.6665 1C11.0498 1 11.4082 1.07083 11.7415 1.2125C12.0748 1.35417 12.3832 1.55 12.6665 1.8C12.9498 1.53333 13.2582 1.33333 13.5915 1.2C13.9248 1.06667 14.2832 1 14.6665 1C15.4998 1 16.2082 1.29167 16.7915 1.875C17.3748 2.45833 17.6665 3.16667 17.6665 4C17.6665 4.18333 17.6498 4.35417 17.6165 4.5125C17.5832 4.67083 17.5332 4.83333 17.4665 5H22.6665V11H20.6665V22H4.6665ZM14.6665 3C14.3832 3 14.1457 3.09583 13.954 3.2875C13.7623 3.47917 13.6665 3.71667 13.6665 4C13.6665 4.28333 13.7623 4.52083 13.954 4.7125C14.1457 4.90417 14.3832 5 14.6665 5C14.9498 5 15.1873 4.90417 15.379 4.7125C15.5707 4.52083 15.6665 4.28333 15.6665 4C15.6665 3.71667 15.5707 3.47917 15.379 3.2875C15.1873 3.09583 14.9498 3 14.6665 3ZM9.6665 4C9.6665 4.28333 9.76234 4.52083 9.954 4.7125C10.1457 4.90417 10.3832 5 10.6665 5C10.9498 5 11.1873 4.90417 11.379 4.7125C11.5707 4.52083 11.6665 4.28333 11.6665 4C11.6665 3.71667 11.5707 3.47917 11.379 3.2875C11.1873 3.09583 10.9498 3 10.6665 3C10.3832 3 10.1457 3.09583 9.954 3.2875C9.76234 3.47917 9.6665 3.71667 9.6665 4ZM4.6665 7V9H11.6665V7H4.6665ZM11.6665 20V11H6.6665V20H11.6665ZM13.6665 20H18.6665V11H13.6665V20ZM20.6665 9V7H13.6665V9H20.6665Z" fill="currentColor"/>
</g>
</g>
</svg>
