<svg width="24" height="24" viewBox="0 0 24 24" fill="none" xmlns="http://www.w3.org/2000/svg">
<g opacity="0.4">
<mask id="mask0_72_2637" style="mask-type:alpha" maskUnits="userSpaceOnUse" x="0" y="0" width="24" height="24">
<rect width="24" height="24" fill="#D9D9D9"/>
</mask>
<g mask="url(#mask0_72_2637)">
<path d="M4.62495 22C4.34162 22 4.09578 21.8958 3.88745 21.6875C3.67912 21.4792 3.57495 21.2333 3.57495 20.95V18.325C3.57495 16.825 4.04162 15.5 4.97495 14.35C5.90828 13.2 7.10828 12.4667 8.57495 12.15C7.90828 12.6167 7.39162 13.2042 7.02495 13.9125C6.65828 14.6208 6.47495 15.3833 6.47495 16.2V20.95C6.47495 21.1333 6.49995 21.3167 6.54995 21.5C6.59995 21.6833 6.68328 21.85 6.79995 22H4.62495ZM8.29995 22C8.01662 22 7.77078 21.8958 7.56245 21.6875C7.35412 21.4792 7.24995 21.2333 7.24995 20.95V16.2C7.24995 15.0333 7.66245 14.0417 8.48745 13.225C9.31245 12.4083 10.3083 12 11.475 12H16.2C17.3666 12 18.3583 12.4083 19.175 13.225C19.9916 14.0417 20.4 15.0333 20.4 16.2V17.8C20.4 18.9667 19.9916 19.9583 19.175 20.775C18.3583 21.5917 17.3666 22 16.2 22H8.29995ZM12 9.9C10.9 9.9 9.96662 9.51667 9.19995 8.75C8.43328 7.98333 8.04995 7.05 8.04995 5.95C8.04995 4.85 8.43328 3.91667 9.19995 3.15C9.96662 2.38333 10.9 2 12 2C13.1 2 14.0333 2.38333 14.8 3.15C15.5666 3.91667 15.95 4.85 15.95 5.95C15.95 7.05 15.5666 7.98333 14.8 8.75C14.0333 9.51667 13.1 9.9 12 9.9Z" fill="currentColor"/>
</g>
</g>
</svg>
